<?xml version="1.0" standalone="no"?><!DOCTYPE svg PUBLIC "-//W3C//DTD SVG 1.1//EN" "http://www.w3.org/Graphics/SVG/1.1/DTD/svg11.dtd"><svg t="1628207105177" class="icon" viewBox="0 0 1024 1024" version="1.1" xmlns="http://www.w3.org/2000/svg" p-id="1906" xmlns:xlink="http://www.w3.org/1999/xlink" width="200" height="200"><defs><style type="text/css"></style></defs><path d="M232 565.328h-48a40 40 0 0 1-40-40v-240a40 40 0 0 1 40-40h48a40 40 0 0 1 40 40v240a40 40 0 0 1-40 40z" fill="#FFD740" p-id="1907"></path><path d="M232 573.328h-48c-26.464 0-48-21.536-48-48v-240c0-26.464 21.536-48 48-48h48c26.464 0 48 21.536 48 48v240c0 26.48-21.536 48-48 48z m-48-320c-17.648 0-32 14.352-32 32v240c0 17.648 14.352 32 32 32h48c17.648 0 32-14.352 32-32v-240c0-17.648-14.352-32-32-32h-48zM288 173.328H128a8 8 0 0 1 0-16h160a8 8 0 0 1 0 16z" fill="#263238" p-id="1908"></path><path d="M208 221.328a8 8 0 0 1-8-8v-48a8 8 0 0 1 16 0v48a8 8 0 0 1-8 8z" fill="#263238" p-id="1909"></path><path d="M840 565.328h-48a40 40 0 0 1-40-40v-240a40 40 0 0 1 40-40h48a40 40 0 0 1 40 40v240a40 40 0 0 1-40 40z" fill="#FFD740" p-id="1910"></path><path d="M840 573.328h-48c-26.464 0-48-21.536-48-48v-240c0-26.464 21.536-48 48-48h48c26.464 0 48 21.536 48 48v240c0 26.48-21.536 48-48 48z m-48-320c-17.648 0-32 14.352-32 32v240c0 17.648 14.352 32 32 32h48c17.648 0 32-14.352 32-32v-240c0-17.648-14.352-32-32-32h-48zM896 173.328H736a8 8 0 0 1 0-16h160a8 8 0 0 1 0 16z" fill="#263238" p-id="1911"></path><path d="M816 221.328a8 8 0 0 1-8-8v-48a8 8 0 0 1 16 0v48a8 8 0 0 1-8 8z" fill="#263238" p-id="1912"></path><path d="M678.368 859.472l-66.768-25.68-19.248 131.536H704V896.8a40 40 0 0 0-25.632-37.328zM412.416 833.792l-66.768 25.68A40 40 0 0 0 320 896.8v68.528h111.664l-19.248-131.536z" fill="#4DB6AC" p-id="1913"></path><path d="M704 973.328h-111.664a8 8 0 0 1 0-16H696V896.8a32.16 32.16 0 0 0-20.512-29.856l-66.768-25.68a8 8 0 0 1 5.744-14.928l66.768 25.68a48.272 48.272 0 0 1 30.768 44.8v68.528a8 8 0 0 1-8 7.984zM431.664 973.328H320a8 8 0 0 1-8-8V896.8c0-19.712 12.352-37.712 30.768-44.8l66.784-25.68a8 8 0 1 1 5.744 14.928l-66.784 25.68a32.176 32.176 0 0 0-20.512 29.856v60.528h103.664a8 8 0 0 1 0 16.016z" fill="#263238" p-id="1914"></path><path d="M978.32 429.248l-159.664 42.576c-33.616 8.96-68.272 13.504-103.072 13.504H308.432c-34.8 0-69.44-4.544-103.072-13.504l-159.664-42.576A40 40 0 0 1 16 390.608v-41.264a40 40 0 0 1 40-40h912a40 40 0 0 1 40 40v41.264a39.984 39.984 0 0 1-29.68 38.64z" fill="#4DB6AC" p-id="1915"></path><path d="M715.6 493.328H308.416c-35.488 0-70.848-4.64-105.12-13.776l-159.664-42.576A48.048 48.048 0 0 1 8 390.608v-41.264c0-26.464 21.536-48 48-48h912c26.464 0 48 21.536 48 48v41.264c0 21.712-14.656 40.8-35.632 46.384l-159.664 42.576c-34.272 9.136-69.632 13.76-105.104 13.76z m-659.6-176c-17.648 0-32 14.352-32 32v41.264a32 32 0 0 0 23.76 30.912l159.664 42.592c32.944 8.784 66.912 13.232 100.992 13.232h407.168c34.096 0 68.064-4.448 100.992-13.232l159.664-42.576a32 32 0 0 0 23.744-30.912v-41.264c0-17.648-14.352-32-32-32H56zM608 285.328a8 8 0 0 1-8-8v-90.672a152.912 152.912 0 0 0-30.4-91.2c-13.712-18.32-34.72-28.8-57.6-28.8s-43.872 10.496-57.6 28.8a152.912 152.912 0 0 0-30.4 91.2v90.672a8 8 0 0 1-16 0v-90.672c0-36.096 11.936-71.904 33.6-100.8 16.784-22.368 42.432-35.2 70.4-35.2s53.632 12.832 70.4 35.2a169.008 169.008 0 0 1 33.6 100.8v90.672a8 8 0 0 1-8 8zM546.176 973.328h-68.336a24.16 24.16 0 0 1-23.744-20.528l-40.944-279.744a491.84 491.84 0 0 1-5.136-70.672v-85.056a8 8 0 0 1 16 0v85.056c0 22.72 1.664 45.712 4.992 68.352l40.944 279.744a8.032 8.032 0 0 0 7.904 6.848h68.336c4.016 0 7.344-2.88 7.92-6.848l40.944-279.728c3.296-22.56 4.976-45.552 4.976-68.352v-85.056a8 8 0 0 1 16 0v85.056c0 23.568-1.712 47.328-5.12 70.672L569.936 952.8a24.16 24.16 0 0 1-23.76 20.528zM816 845.328a8 8 0 0 1-8-8v-32a8 8 0 0 1 16 0v32a8 8 0 0 1-8 8z" fill="#263238" p-id="1916"></path><path d="M816 781.328a8 8 0 0 1-8-8v-128a8 8 0 0 1 16 0v128a8 8 0 0 1-8 8z" fill="#263238" p-id="1917"></path><path d="M208 845.328a8 8 0 0 1-8-8v-32a8 8 0 0 1 16 0v32a8 8 0 0 1-8 8z" fill="#263238" p-id="1918"></path><path d="M208 781.328a8 8 0 0 1-8-8v-128a8 8 0 0 1 16 0v128a8 8 0 0 1-8 8z" fill="#263238" p-id="1919"></path></svg>